<svg width="95" height="92" viewBox="0 0 95 92" fill="none" xmlns="http://www.w3.org/2000/svg">
<path d="M18.9688 24.1562H28.875L46.625 41.9688L64.375 24.1562H74.2812V73H64.375V37.875L46.625 54.9688L28.875 37.875V73H18.9688V24.1562Z" fill="black"/>
<rect x="19" y="82" width="66" height="10" fill="black"/>
<rect x="19" y="82" width="66" height="10" fill="black"/>
<rect x="10" width="75" height="10" fill="black"/>
<rect x="10" width="75" height="10" fill="black"/>
<rect x="85" y="82" width="37" height="10" transform="rotate(-90 85 82)" fill="black"/>
<rect x="85" y="82" width="37" height="10" transform="rotate(-90 85 82)" fill="black"/>
<rect y="38" width="28" height="10" transform="rotate(-90 0 38)" fill="black"/>
<rect y="38" width="28" height="10" transform="rotate(-90 0 38)" fill="black"/>
<rect x="19" y="56" width="10" height="27" fill="black"/>
<rect x="19" y="56" width="10" height="27" fill="black"/>
<circle cx="89.5" cy="33.5" r="5.5" fill="black"/>
</svg>
