<svg width="345" height="92" viewBox="0 0 345 92" fill="none" xmlns="http://www.w3.org/2000/svg">
<path d="M18.9688 24.1562H28.875L46.625 41.9688L64.375 24.1562H74.2812V73H64.375V37.875L46.625 54.9688L28.875 37.875V73H18.9688V24.1562Z" fill="black"/>
<rect x="19" y="82" width="66" height="10" fill="black"/>
<rect x="19" y="82" width="66" height="10" fill="black"/>
<rect x="10" width="75" height="10" fill="black"/>
<rect x="10" width="75" height="10" fill="black"/>
<rect x="85" y="82" width="37" height="10" transform="rotate(-90 85 82)" fill="black"/>
<rect x="85" y="82" width="37" height="10" transform="rotate(-90 85 82)" fill="black"/>
<rect y="38" width="28" height="10" transform="rotate(-90 0 38)" fill="black"/>
<rect y="38" width="28" height="10" transform="rotate(-90 0 38)" fill="black"/>
<rect x="19" y="56" width="10" height="27" fill="black"/>
<rect x="19" y="56" width="10" height="27" fill="black"/>
<circle cx="89.5" cy="33.5" r="5.5" fill="black"/>
<path d="M106.875 24.1562H116.781L147.219 40.0938V24.1562H157.125V73H147.219V50.5938L116.781 34.75V73H106.875V24.1562ZM187.594 24.1562H198.094L221.719 73H211.312L207.406 64.7812H178.875L175.094 73H164.656L187.594 24.1562ZM203.5 56.625L192.938 34.4375L182.656 56.625H203.5ZM231.594 58.4688C233.365 59.4688 235.156 60.375 236.969 61.1875C238.802 61.9792 240.698 62.6562 242.656 63.2188C244.615 63.7604 246.667 64.1771 248.812 64.4688C250.979 64.7604 253.281 64.9062 255.719 64.9062C258.656 64.9062 261.156 64.7188 263.219 64.3438C265.281 63.9479 266.958 63.4167 268.25 62.75C269.562 62.0625 270.51 61.25 271.094 60.3125C271.698 59.375 272 58.3542 272 57.25C272 55.4792 271.26 54.0833 269.781 53.0625C268.302 52.0208 266.021 51.5 262.938 51.5C261.583 51.5 260.156 51.5938 258.656 51.7812C257.156 51.9479 255.635 52.1354 254.094 52.3438C252.573 52.5521 251.062 52.75 249.562 52.9375C248.083 53.1042 246.688 53.1875 245.375 53.1875C243.188 53.1875 241.083 52.9062 239.062 52.3438C237.062 51.7812 235.281 50.9375 233.719 49.8125C232.177 48.6875 230.948 47.2812 230.031 45.5938C229.115 43.9062 228.656 41.9375 228.656 39.6875C228.656 38.3542 228.833 37.0312 229.188 35.7188C229.562 34.4062 230.146 33.1562 230.938 31.9688C231.75 30.7604 232.792 29.6458 234.062 28.625C235.333 27.5833 236.865 26.6875 238.656 25.9375C240.469 25.1875 242.552 24.6042 244.906 24.1875C247.281 23.75 249.979 23.5312 253 23.5312C255.188 23.5312 257.385 23.6562 259.594 23.9062C261.802 24.1354 263.948 24.4688 266.031 24.9062C268.135 25.3438 270.156 25.875 272.094 26.5C274.031 27.1042 275.833 27.7812 277.5 28.5312L273.156 36.5312C271.781 35.9271 270.302 35.375 268.719 34.875C267.135 34.3542 265.479 33.9062 263.75 33.5312C262.021 33.1562 260.229 32.8646 258.375 32.6562C256.542 32.4271 254.667 32.3125 252.75 32.3125C250.021 32.3125 247.771 32.5104 246 32.9062C244.25 33.3021 242.854 33.8125 241.812 34.4375C240.771 35.0417 240.042 35.7292 239.625 36.5C239.229 37.25 239.031 38 239.031 38.75C239.031 40.2083 239.688 41.4062 241 42.3438C242.312 43.2604 244.312 43.7188 247 43.7188C248.083 43.7188 249.323 43.6458 250.719 43.5C252.135 43.3333 253.615 43.1562 255.156 42.9688C256.719 42.7812 258.302 42.6146 259.906 42.4688C261.531 42.3021 263.104 42.2188 264.625 42.2188C267.5 42.2188 270.042 42.5417 272.25 43.1875C274.479 43.8333 276.344 44.7604 277.844 45.9688C279.344 47.1562 280.479 48.6042 281.25 50.3125C282.021 52 282.406 53.8958 282.406 56C282.406 58.8125 281.75 61.3229 280.438 63.5312C279.146 65.7188 277.292 67.5729 274.875 69.0938C272.479 70.5938 269.583 71.7396 266.188 72.5312C262.792 73.3021 259.01 73.6875 254.844 73.6875C252.094 73.6875 249.406 73.5104 246.781 73.1562C244.156 72.8229 241.635 72.3438 239.219 71.7188C236.823 71.0729 234.531 70.3125 232.344 69.4375C230.177 68.5417 228.167 67.5625 226.312 66.5L231.594 58.4688ZM309.969 24.1562H320.469L344.094 73H333.688L329.781 64.7812H301.25L297.469 73H287.031L309.969 24.1562ZM325.875 56.625L315.312 34.4375L305.031 56.625H325.875Z" fill="black"/>
</svg>
